<svg id="Group_21" data-name="Group 21" xmlns="http://www.w3.org/2000/svg" xmlns:xlink="http://www.w3.org/1999/xlink" width="152" height="114" viewBox="0 0 152 114">
  <defs>
    <clipPath id="clip-path">
      <rect id="Rectangle_11" data-name="Rectangle 11" width="152" height="114" fill="none"/>
    </clipPath>
  </defs>
  <g id="Group_3" data-name="Group 3" clip-path="url(#clip-path)">
    <path id="Path_11" data-name="Path 11" d="M137.715,2.841c30.9,5.366,54.031,27.091,54.031,53.079a45.21,45.21,0,0,1-7.725,25.022c8.056-8.2,12.853-18.484,12.853-29.654,0-26.15-26.276-47.46-59.16-48.447" transform="translate(-45.433 -0.785)" fill="red"/>
    <path id="Path_12" data-name="Path 12" d="M9.056,82.129a5.15,5.15,0,0,1,5.686-1.79A6.971,6.971,0,0,0,18.376,81a7.355,7.355,0,0,0,4.407-2.111,13.857,13.857,0,0,0,2.77-3.032,14.552,14.552,0,0,0,1.293-2.37,41.775,41.775,0,0,1-6.072-21.515c0-27.991,28.8-50.683,64.329-50.683.834,0,1.663.017,2.489.042A90.934,90.934,0,0,0,72.035,0C32.251,0,0,25.438,0,56.816A47.344,47.344,0,0,0,8.343,83.374a5.663,5.663,0,0,1,.712-1.245" fill="red"/>
    <path id="Path_13" data-name="Path 13" d="M92.329,132.916c-22.762,0-42.763-9.314-54.2-23.368-2.305,3.4-4.9,6.859-6.781,8.289-2.061,1.569-5.181,3.874-9.381,3.619-.021,0-.042-.006-.064-.007,13.158,13.638,33.952,22.444,57.357,22.444,27.825,0,51.963-12.445,63.961-30.661-11.767,11.974-30.187,19.685-50.895,19.685" transform="translate(-7.227 -30.26)" fill="red"/>
    <path id="Path_14" data-name="Path 14" d="M74.738,83.911l-.425,2.619q-1.532.138-2.68.138a34.936,34.936,0,0,1-4-.276q-4-.459-5.062-.46a38.2,38.2,0,0,0-5.487.6A60.275,60.275,0,0,0,59.3,79a94.811,94.811,0,0,0,1.362-9.648q-4.969-.045-15.415.23-10.83,17.825-15.87,22.4t-9.592,4.571a5.414,5.414,0,0,1-3.552-.987,3.187,3.187,0,0,1-1.169-2.55,2.9,2.9,0,0,1,.68-1.976,2.164,2.164,0,0,1,1.7-.781,7.794,7.794,0,0,1,1.616.229,17.719,17.719,0,0,0,3.4.643q2.849,0,6.295-3.492,5.611-5.7,16.577-23.89Q57.746,43.162,65.44,33.788,54.946,34.8,52.355,35.717A10.779,10.779,0,0,0,47,39.393a8.32,8.32,0,0,0-1.784,4.961,7.466,7.466,0,0,0,.553,2.343,8.628,8.628,0,0,1,.6,2.481,2.562,2.562,0,0,1-.724,1.792,2.29,2.29,0,0,1-1.744.781,2.749,2.749,0,0,1-2.319-1.172,5.863,5.863,0,0,1-.872-3.515,13.848,13.848,0,0,1,1.6-6.409,14.25,14.25,0,0,1,4.572-5.192,22.049,22.049,0,0,1,7.444-3.193A53.963,53.963,0,0,1,62.4,31.215a39.589,39.589,0,0,0,6.3-.873A9.551,9.551,0,0,0,72.539,28q-1.279,5.651-1.833,9.878L67.383,64.432,65.466,83.452a21.4,21.4,0,0,0,5.657.873,17.565,17.565,0,0,0,3.615-.414m-13.7-17.963Q63.083,47.3,65.125,38.7q-5.39,7.73-6.664,9.751L47.532,65.948q3.525.138,10.068.138,1.614,0,3.442-.138" transform="translate(-4.969 -7.734)"/>
    <path id="Path_15" data-name="Path 15" d="M146.842,49.75H144.63q.468-4.824.468-7.305a8.266,8.266,0,0,0-1.762-5.582,5.978,5.978,0,0,0-4.774-2.045,10.909,10.909,0,0,0-8.148,3.655,11.62,11.62,0,0,0-3.479,8.208,10.019,10.019,0,0,0,.954,4.414,26.373,26.373,0,0,0,4.22,5.517q5.98,6.346,7.847,9.932a15.083,15.083,0,0,1,1.866,6.988,18.3,18.3,0,0,1-2.828,9.655,21.609,21.609,0,0,1-8.337,7.656,23.91,23.91,0,0,1-11.634,3.012,15.54,15.54,0,0,1-10.187-3.4q-4.147-3.4-4.147-7.167a5.141,5.141,0,0,1,1.084-3.354,3.162,3.162,0,0,1,2.489-1.332,2.866,2.866,0,0,1,2.382,1.241,9.415,9.415,0,0,1,1.191,3.308,13.071,13.071,0,0,0,1.658,4.526,7.356,7.356,0,0,0,2.7,2.3,8.039,8.039,0,0,0,3.765.9,14.756,14.756,0,0,0,10.634-4.437q4.551-4.436,4.551-9.817a12.068,12.068,0,0,0-.574-3.655,16.868,16.868,0,0,0-2.105-4.115,59.648,59.648,0,0,0-4.722-5.517,51.348,51.348,0,0,1-4.551-5.287,16.963,16.963,0,0,1-1.957-4.161,14.2,14.2,0,0,1-.638-4.161,16,16,0,0,1,2.595-8.415,19.892,19.892,0,0,1,6.742-6.735,17.859,17.859,0,0,1,9.422-2.506,30.515,30.515,0,0,1,6.508.873q2.211.459,3.828.689a51.771,51.771,0,0,0-1.446,5.628q-.511,2.642-1.4,10.5" transform="translate(-34.538 -8.856)"/>
  </g>
</svg>
